<?xml version="1.0" encoding="utf-8"?>
<!-- Generator: Adobe Illustrator 22.1.0, SVG Export Plug-In . SVG Version: 6.00 Build 0)  -->
<svg version="1.1" id="Lager_1" xmlns="http://www.w3.org/2000/svg" xmlns:xlink="http://www.w3.org/1999/xlink" x="0px" y="0px"
	 viewBox="0 0 200 200" style="enable-background:new 0 0 200 200;" xml:space="preserve">
<g>
	<g>
		<path d="M22.3,156.8c27.4-4,56.5-8.4,79.6-24.8c23.2-16.5,34.7-43.2,40.6-70.3c0.4-1.9-2.5-2.7-2.9-0.8
			c-6,27.3-17.7,54.4-41.8,70.2c-22.5,14.8-50.2,19-76.3,22.8C19.6,154.2,20.4,157.1,22.3,156.8L22.3,156.8z"/>
	</g>
</g>
<g>
	<g>
		<path d="M99,76c25.3,5.3,45.1-13.9,56.4-34.3c-0.9-0.4-1.8-0.8-2.7-1.2c-3,19.8-3,39.8,0,59.7c1-0.3,1.9-0.5,2.9-0.8
			c-5.6-13.6-4.5-26.3-1.5-40.4c0.8-3.9,5.5-24.1-3.3-22.2c-2,0.4-4.2,2.2-6,3.2c-3.1,1.9-6.1,3.9-9.1,5.9
			c-5.4,3.6-10.9,7.1-16.6,10.1c-11.8,6.1-24.4,10.2-37.5,12.6c-1.8,0.3-1.2,2.8,0.4,2.9c27.9,2.9,56.2-8.6,74.2-30.1
			c0.6-0.7,0.6-1.8-0.3-2.4c-5.1-3.2-5.7,6.4-6,9.1c-1,9-1.8,18.1-1.9,27.2c-0.2,17,2.3,34,10.7,49c0.9-0.5,1.7-1,2.6-1.5
			c-8.2-12.7-7.7-30-9.3-44.6c-0.8-7.7-1.7-15.4-2.5-23.2c-0.4-4.1-0.5-8.4-4.7-10.1c-0.7-0.3-1.7,0.3-1.8,1
			c-2.8,19.6-25.4,22.3-41.3,23.1c-1.9,0.1-1.9,3.1,0,3c17.1-0.9,41.2-4.3,44.2-25.3c-0.6,0.3-1.2,0.7-1.8,1c3.2,1.4,2.7,8.4,3,11.1
			c0.4,3.5,0.8,7.1,1.2,10.6c0.8,7.1,1.6,14.2,2.3,21.2c1.3,11.5,1.9,23.5,8.4,33.6c1,1.6,3.5,0.2,2.6-1.5
			c-6.9-12.2-9.7-25.9-10.2-39.9c-0.2-6.5,0-13.1,0.4-19.6c0.2-3.4,0.5-6.8,0.9-10.2c0.1-1.2,1.5-11.8,2-11.5
			c-0.1-0.8-0.2-1.6-0.3-2.4c-17.6,21-44.9,32-72.1,29.2c0.1,1,0.3,2,0.4,2.9c11-2,21.7-5.3,31.9-9.9c10.6-4.8,19.9-11.4,29.7-17.6
			c1.3-0.8,5.4-4.4,7-4.1c2.9,0.5,1.9,8.2,1.7,9.9c-0.7,6.4-2.6,12.5-3.7,18.9c-1.7,10.7-0.4,21.4,3.7,31.5c0.7,1.8,3.2,1.1,2.9-0.8
			c-3-19.3-3-38.8,0-58.1c0.2-1.6-1.9-2.8-2.7-1.2c-10.5,19.2-29.1,37.9-53,32.9C98,72.7,97.2,75.6,99,76L99,76z"/>
	</g>
</g>
<g>
	<g>
		<path d="M148.6,53.8c3.1,9.2-6.6,17.9-11.9,24.4c-5.6,7-11.3,13.9-16.9,20.9c0.8,0.6,1.6,1.2,2.4,1.8
			C133,84.7,142.6,67.7,151,50.1c-0.9-0.4-1.8-0.8-2.7-1.2c-4.7,27.9-19.5,53.7-41.6,71.5c-12.3,9.9-26.8,17.9-40.8,25.3
			c-14.7,7.8-30.4,14.1-47.3,14.2c0.1,1,0.3,2,0.4,2.9c28.5-7.9,55.9-20.9,79.6-38.8c10.4-7.9,20-16.9,27-28
			c8-12.8,11.9-27.5,15.7-42c0.5-1.9-2.4-2.7-2.9-0.8c-3.7,14.2-7.5,28.7-15.4,41.3c-7.3,11.6-17.6,20.9-28.5,28.9
			c-22.9,16.7-49,29-76.3,36.6c-1.6,0.5-1.3,3,0.4,2.9c16.2-0.1,31.4-5.6,45.7-12.9c14.9-7.6,30.1-16.1,43.3-26.4
			c23.1-18.1,38.7-44.9,43.6-73.8c0.3-1.5-1.9-2.8-2.7-1.2c-8.4,17.6-18.1,34.6-28.9,50.8c-0.9,1.4,1.3,3.1,2.4,1.8
			c7.3-8.9,14.5-17.9,21.8-26.8c4.9-6.1,10.5-13.1,7.8-21.3C150.8,51.2,147.9,52,148.6,53.8L148.6,53.8z"/>
	</g>
</g>
<g>
	<g>
		<path d="M150.9,44c-3,31.5,2.8,63.3,16.7,91.7c0.8-0.6,1.6-1.2,2.4-1.8c-11-10.2-14.8-25.1-17.6-39.4c-3.4-17.7-5.3-35.8-2.7-53.8
			c-1-0.1-2-0.3-2.9-0.4c-0.1,22.6-0.1,45.5,6.2,67.4c0.5,1.6,3,1.3,2.9-0.4c-1.1-24.6-2-49.8,6.9-73.2c-1-0.1-2-0.3-2.9-0.4
			c-2.2,16.5-3.8,33-4.6,49.6c1,0,2,0,3,0c-1-16.6,0.6-33.1,4.8-49.2c0.4-1.6-1.9-2.7-2.7-1.2c-2.3,4-4.5,7.9-6.8,11.9
			c0.9,0.3,1.9,0.5,2.8,0.8c-0.1-4.3,1.1-8.1,4-11.3c1.3-1.5-0.6-3.3-2.1-2.1c-12.1,9.5-24.3,18.9-36.4,28.4
			c-1.5,1.2,0.6,3.3,2.1,2.1c12.1-9.5,24.3-18.9,36.4-28.4c-0.7-0.7-1.4-1.4-2.1-2.1c-3.4,3.9-5.1,8.3-4.9,13.5c0,1.5,2,2.1,2.8,0.8
			c2.3-4,4.5-7.9,6.8-11.9c-0.9-0.4-1.8-0.8-2.7-1.2c-4.3,16.3-6,33.1-4.9,50c0.1,1.9,2.9,1.9,3,0c0.9-16.6,2.4-33.1,4.6-49.6
			c0.2-1.8-2.4-1.9-2.9-0.4c-9,23.7-8.1,49.2-7,74c1-0.1,2-0.3,2.9-0.4c-6.1-21.7-6.2-44.3-6.1-66.6c0-1.6-2.7-2.1-2.9-0.4
			c-2.8,18.5-0.8,37.1,2.7,55.4c2.8,14.8,6.9,30.1,18.3,40.7c1.3,1.2,3.1-0.3,2.4-1.8c-13.7-28-19.3-59.2-16.3-90.2
			C154,42.1,151,42.1,150.9,44L150.9,44z"/>
	</g>
</g>
<g>
	<g>
		<path d="M158.4,37.9c5.5,28.9-11.6,59.7,3.4,87.1c0.9,1.7,3.5,0.2,2.6-1.5c-14.6-26.8,2.3-58-3.1-86.4
			C161,35.2,158.1,36,158.4,37.9L158.4,37.9z"/>
	</g>
</g>
<g>
	<g>
		<path d="M147.7,49.3c-25,11.4-51.8,23.2-79.9,17.8c0,1,0,1.9,0,2.9c14.7-2.2,29.3-4.5,44-6.7c1.9-0.3,1.1-3.2-0.8-2.9
			c-14.7,2.2-29.3,4.5-44,6.7c-1.5,0.2-1.4,2.6,0,2.9c29,5.5,56.4-6.4,82.2-18.1C150.9,51.1,149.4,48.5,147.7,49.3L147.7,49.3z"/>
	</g>
</g>
</svg>
